<?xml version="1.0" encoding="utf-8"?>
<!-- Generator: Adobe Illustrator 19.0.0, SVG Export Plug-In . SVG Version: 6.00 Build 0)  -->
<svg version="1.1" id="Слой_1" xmlns="http://www.w3.org/2000/svg" xmlns:xlink="http://www.w3.org/1999/xlink" x="0px" y="0px"
	 viewBox="-394.8 204.3 151 151" style="enable-background:new -394.8 204.3 151 151;" xml:space="preserve">
<style type="text/css">
	.st0{fill:#1C56FF;}
	.st1{fill:#44CBFF;}
	.st2{fill:#033EFF;}
	.st3{fill:#839CFF;}
	.st4{fill:#4478FF;}
	.st5{opacity:0.49;fill:url(#XMLID_2_);enable-background:new    ;}
</style>
<g id="XMLID_54_">
	<circle id="XMLID_64_" class="st0" cx="-319.6" cy="280.1" r="76"/>
	<path id="XMLID_63_" class="st1" d="M-273.1,340.2c-12.8,4.8-26.8,8.2-41.4,9.7c-12.5,1.3-24.6,1.2-35.9-0.3
		c-12.8-5.7-23.7-14.7-31.7-26.1c-5.2-9.4-8.2-20.4-8.5-32.3c0.9-41.3,34.6-77.8,76-82.2c9.6-1,18.7-0.2,27.1,2.1
		c25.8,12.1,43.7,38.4,43.7,68.8C-243.6,304.6-255.1,326.3-273.1,340.2z"/>
	<path id="XMLID_62_" class="st2" d="M-319.6,204.1c42,0,76,34,76,76c0,22.4-9.7,42.5-25.1,56.4c-15.3,5.3-32.6,8.3-50.9,8.3
		c-18.3,0-35.7-3-50.9-8.3c-15.4-13.9-25.1-34-25.1-56.4C-395.6,238.2-361.6,204.1-319.6,204.1z"/>
	<path id="XMLID_61_" class="st0" d="M-319.6,204.1c42,0,76,34,76,76c0,11.2-2.4,21.8-6.7,31.3c-19.7,9.3-43.5,14.7-69.3,14.7
		c-25.7,0-49.6-5.5-69.3-14.7c-4.3-9.5-6.7-20.1-6.7-31.3C-395.6,238.2-361.6,204.1-319.6,204.1z"/>
	<path id="XMLID_60_" class="st3" d="M-245.2,264.7c-47.9,26.2-104,33.2-150.4,18.4c0-1-0.1-1.9-0.1-2.9c0-42,34-76,76-76
		C-282.9,204.1-252.3,230.1-245.2,264.7z"/>
	<path id="XMLID_59_" class="st2" d="M-319.6,204.1c34.8,0,64.1,23.4,73.1,55.3c-19.6,11.6-45.2,18.6-73.1,18.6
		c-28,0-53.5-7-73.1-18.6C-383.7,227.5-354.4,204.1-319.6,204.1z"/>
	<path id="XMLID_58_" class="st0" d="M-319.6,204.1c31.3,0,58.2,19,69.9,46c-19.1,10.4-43.4,16.7-69.9,16.7
		c-26.4,0-50.7-6.3-69.9-16.7C-377.8,223.1-350.9,204.1-319.6,204.1z"/>
	<path id="XMLID_57_" class="st4" d="M-257.7,236c-16.5,3.6-34.9,4.7-54.2,3c-21.3-1.9-41.4-7.1-59.2-14.8
		c13.5-12.5,31.6-20.1,51.5-20.1C-294.1,204.1-271.5,216.7-257.7,236z"/>
	<path id="XMLID_56_" class="st2" d="M-319.6,204.1c18.3,0,35.1,6.5,48.2,17.3c-13.8,6.2-30.4,9.9-48.2,9.9
		c-17.8,0-34.4-3.6-48.2-9.9C-354.7,210.6-337.9,204.1-319.6,204.1z"/>
	
		<radialGradient id="XMLID_2_" cx="-274.7497" cy="652.3211" r="110.9004" gradientTransform="matrix(1 0 0 1 0 -400.445)" gradientUnits="userSpaceOnUse">
		<stop  offset="0" style="stop-color:#000000;stop-opacity:0"/>
		<stop  offset="1" style="stop-color:#000000;stop-opacity:0.9"/>
	</radialGradient>
	<path id="XMLID_55_" class="st5" d="M-319.4,358.2c42.8,0,77.7-34.9,77.7-77.7s-34.9-77.7-77.7-77.7s-77.7,34.9-77.7,77.7
		C-397,323.3-362.1,358.2-319.4,358.2z"/>
</g>
</svg>
