<?xml version="1.0" encoding="utf-8"?>
<!-- Generator: Adobe Illustrator 19.0.0, SVG Export Plug-In . SVG Version: 6.00 Build 0)  -->
<svg version="1.1" id="Слой_1" xmlns="http://www.w3.org/2000/svg" xmlns:xlink="http://www.w3.org/1999/xlink" x="0px" y="0px"
	 viewBox="-395.3 205.6 151.3 151.3" style="enable-background:new -395.3 205.6 151.3 151.3;" xml:space="preserve">
<style type="text/css">
	.st0{fill:#EDD091;}
	.st1{fill:#FCE6B8;}
	.st2{opacity:0.49;fill:url(#SVGID_1_);enable-background:new    ;}
</style>
<g>
	<path class="st0" d="M-319.2,357.2c41.9,0,76-34.1,76-76s-34.1-76-76-76s-76,34.1-76,76C-395.2,323-361.1,357.2-319.2,357.2z"/>
	<path class="st1" d="M-250.2,313v-15.6c3.1-2.2,5.2-4.3,6.3-6C-244.9,299-247.1,306.3-250.2,313L-250.2,313z M-250.2,287.9v-8.6
		c1.9-1.2,4.1-2.2,6.8-3.1c0.1,1.7,0.2,3.4,0.2,5.1c0,2.3-0.1,4.7-0.3,6.9C-244.3,287.2-246.5,286.9-250.2,287.9L-250.2,287.9z
		 M-250.2,273.8v-16.4l2.9-0.9c1.3,3.9,2.4,7.9,3,12.1C-245.7,270.2-247.3,271.8-250.2,273.8z M-261.6,231.6
		c1.8,2.1,3.6,4.4,5.2,6.7c-30.1,6.1-83.4,11.2-103.3,10.2v-22.7c17.9,2.4,33.7,2.3,43.4,1.3c14.1-1.4,33.1-7.2,28.2,0.4
		C-292.6,234.3-279.4,236.8-261.6,231.6L-261.6,231.6z M-250.2,257.4v16.4c-1.2,0.8-2.7,1.7-4.4,2.7c-14.1,7.6-41.7,18-34.1,13.6
		s-14.6,0-37.4,3.3c-21.4,3.1-15-12.7-33.6-16.8v-10.7c14.7,1.6,29.3,2.5,43.4,3c26.6,1.1,18.4,0-1.6,3.8
		c-20.1,3.8-8.7,11.4,16.3,7.6c24.9-3.8,46.1-13.1,36.8-15.2C-270.5,263.7-262.5,261.1-250.2,257.4L-250.2,257.4z M-250.2,279.2
		c-7.7,4.8-8.1,10.7-0.1,8.7h0.1V279.2L-250.2,279.2z M-250.2,297.4V313c-0.7,1.4-1.4,2.8-2.1,4.2c-10.8,3.2-19.4,5.6-27.2,8.2
		c-13,4.4-10.3,8.7,2.7,6.5c4.3-0.7,10.2-1.4,15.7-1.8c-1.6,1.9-3.3,3.7-5,5.4c-16.7,3.9-38,8-48.6,6.7c-14.1-1.6-15.7-9.2,4.3-14.1
		c20.1-4.9,8.1-5.4-12.5-5.4c-9.9,0-24.8-1.6-36.9-3.9V308c4.8,2.6,11.3,4.4,19.5,4.7c27.6,1.1,59.6-1.1,78.6-9.3
		C-257,301.7-253.1,299.5-250.2,297.4L-250.2,297.4z M-359.7,345.3c4.4-2.4,10.6-5.1,15.2-7.9c8.4-5.1,0.1-6-15.2-7.1V345.3
		L-359.7,345.3z M-307,356.2c-4,0.6-8,1-12.2,1c-9.2,0-17.9-1.6-26.1-4.6c27.1-0.5,47.8-7.1,39.7,0.5
		C-306.6,354.1-307,355.1-307,356.2z M-359.7,248.5c-1.4-0.1-2.7-0.2-3.8-0.3c-20.6-2.7,15.7-4.4-2.7-7.6c-5-0.9-9.8-2.3-14.5-4
		c3.3-4.5,7-8.6,11.1-12.3c3.3,0.6,6.6,1.1,9.8,1.5L-359.7,248.5C-359.8,248.5-359.7,248.5-359.7,248.5z M-359.7,265.8v10.7
		c-1.2-0.3-2.4-0.5-3.8-0.6c-11.4-1.3-22-3.4-31-4.7c0.5-3.5,1.2-6.9,2.1-10.3C-381.7,263-370.7,264.6-359.7,265.8L-359.7,265.8z
		 M-359.7,308.2V319c-13-2.4-22.6-5.5-18.9-8.1c6.3-4.4,1.4-7.8-13.7-8.9c-1.8-6.5-2.8-13.4-2.9-20.4c6.1,0.9,12.5,1.5,18.1,1.5
		c20.1,0,20.6,3.8,10.8,7.1C-373.1,292.3-371.1,302.2-359.7,308.2L-359.7,308.2z M-359.7,330.3v15l-0.1,0.1
		c-7-4.4-13.2-10-18.4-16.4C-371.5,329.6-365.2,330-359.7,330.3z"/>
	
		<radialGradient id="SVGID_1_" cx="-274.312" cy="652.9561" r="110.9004" gradientTransform="matrix(1 0 0 1 0 -400.445)" gradientUnits="userSpaceOnUse">
		<stop  offset="0" style="stop-color:#000000;stop-opacity:0"/>
		<stop  offset="1" style="stop-color:#000000;stop-opacity:0.9"/>
	</radialGradient>
	<path class="st2" d="M-319,358.8c42.8,0,77.7-34.9,77.7-77.7s-34.9-77.7-77.7-77.7s-77.7,34.9-77.7,77.7
		C-396.6,323.9-361.7,358.8-319,358.8z"/>
</g>
</svg>
