<?xml version="1.0" encoding="utf-8"?>
<!-- Generator: Adobe Illustrator 19.0.0, SVG Export Plug-In . SVG Version: 6.00 Build 0)  -->
<svg version="1.1" id="Слой_1" xmlns="http://www.w3.org/2000/svg" xmlns:xlink="http://www.w3.org/1999/xlink" x="0px" y="0px"
	 viewBox="0 0 300 300" style="enable-background:new 0 0 300 300;" xml:space="preserve">
<style type="text/css">
	.st0{fill:#A82C5F;}
	.st1{fill:#EE4383;}
</style>
<rect id="XMLID_1_" x="0" class="st0" width="300" height="300"/>
<path id="XMLID_2_" class="st1" d="M249.8,37C231,54,234,81,246,101c-21-8-19-35-13.3-52.6c-0.7-2.5-1.6-5-2.7-7.4
	c-5.3-11.9-14.6-21.5-29-24c-9-1-17,2-24,8c-5,5-6,12-5,19c2,4,5,9,10,9c5-1,11-3,16-1c10,3,1,18-6,23c-9,6-20,5-30,1
	c-20-10-25-33-21.5-53.4c-1.9-1.8-3.9-3.5-6-4.9c-6.3-4.4-13.6-7.2-21.6-7.7c-11,0-21,5-27,15c-4,7-4,18,4,23c6,3,11-1,17,0
	c8,1,9,10,6,16c-2,4-5,7-8.5,9.1S97,76.5,93,77C77,59,51,55,30,67c-1-10,10-13,15.7-16.8c7.6-2.5,7.7-5.5,7.5-8.3
	C51.3,27.4,43.7,14.2,27,10c-6-1-12,0-18,3C4,16-1,23,4,27c7,7,17,15,11,26C9,62-1,67-11,66c-15-2-27-13-34.5-26.2
	c-2-0.7-3.9-1.1-5.7-1.5C-76.5,36.9-92,34.9-92,32.8c0-2.3,17.5-4.3,45.7-5.8c2,0.8,3.7,5.2,6,10.6C-34,50-23,60-9,59c5-1,11-3,11-8
	c0-9-12-13-12-23C-10,8,14-2,31,4c16,6,24,21,24.9,37.3c0.5,2.6,1.2,5.1,2.1,7.6C53,51,47,50,43,55c15,4,32,2,45,13c1,0,2-3,2-3
	c-14-13-20-35-4-49c14.3-12.8,33.6-10.9,48.7-1.8c2.5,1.5,4.9,3.3,7,5.4C138,41,142,66,165,74c12,4,29-5,24-16c-2-5-16-5-18-15
	c-2-13,7-23,18-25c18-4.5,33.8,6.2,41.1,21.9c1.2,2.6,2.1,5.5,2.7,8.6C228,64,224,88,242,97c-8-16-11-35,0.4-50.8
	C246.4,40.4,249.3,37.5,249.8,37z"/>
<path id="XMLID_3_" class="st1" d="M345.5,73.8c0,1.1-4,2.2-11.2,3.2c-2.4,0.3-5.2,0.7-8.2,1c-4.1-8,9.9-17,1.9-20
	c-15-6-33,1-48.7-7.3c-4.6-2-7.4-1.1-9.8,0.1c-7,4.4-11.5,11.6-9.5,21.1c2,11,12,5,20,4c9-1,12,11,10,19c-5,15-23,22-37,16
	c8-1,19,3,24-6c-14,8-33,5-42-9c-8-12-10-28-4.4-42.1c0-4.2-0.7-7.5-1.8-10.6c-3.3-9-9.3-16.7-18.8-21.2c-12-5-29-2-34,12
	c13-6,30-5,37,8c5,11,5,23-1,33c-8,12-21,18-34,19.6c-8.6,0.9-8,3.8-6.8,6.6c1.4,2.9,3.4,5.5,5.9,7.9c-17,8-28-13-33-27
	c0,0-1-2-2.8-2.4c-0.9-1.6-3.5,0.4-5.6,1.9C127,88,117,94,106,95c2-4,6-7,8-11c-2.8,1-5.8,1.8-8.8,2.3s-6.1,0.9-9.1,0.9
	C86,70,67,59,48,64c-15,5-29,18-30,34c-4-5-1-11-4-16c0,4-2,9-1,13c-2-17,7-35,23-43c-8,8-19,15-18,28c2,0,1-3,2-3s1,2,1,3
	c23-25,56-20,76.8,4.3c3.4-0.2,6.8-1,10.2-2.3c11-4,13-16,21-24c2-1,5,3,6,2c8-2,1-10,1.6-15.9c-0.5-2.3-0.9-4.1-1.5-5.3
	c-3.4-6.4-8.6-12.4-11.1-18.9c3,0.8,5.8,2,8.4,3.6s4.9,3.7,7,6C136,51,148,73,168,81c14,6,29-1,38-11c-9,21-33,20-51,18
	c25,9,61-3,59-34c-1-7-4-12-9-17c-10-8-23-3-29,7c-3-7,0-15,6-20c7-5,15-6,23-4c12.5,3,18.8,10.8,22.5,20.1c1.3,3.1,2.2,6.4,3.1,9.8
	C225,69,227,96,248,106c5,2,19,1,16-1c-19-12-30-32-21-52c-3,12-2,24,5,34c6,7,18,13,25,5c-18-1-26-23-15-37
	c2.6-3.1,5.4-5.6,8.4-7.4c3.1-1.6,6.3-2.6,11.2-0.1C295,60,316,50,334,55c3,1,0,9-1,13c0,1,3,1,4.1,1.7
	C341.5,71.6,345.5,72.6,345.5,73.8z"/>
<path id="XMLID_4_" class="st1" d="M308.7,74.8c0.5,2.9,0.7,5.8,0.6,8.7c-0.8,14.5-9.9,28.8-23.3,35.5c-6,2.5-12.5,4-19.2,4.3
	c-2.2,0.1-4.5,0-6.7-0.2C245,113,223,110,207,121c6-5,12-11,20-13c4.3-2.1,3.7-4.8,2.5-7.3s-2.7-4.8-4.7-7c-1.7-1.9-3.6-3.8-5.3-5.5
	c0.8-3.1,2.1-6.2,3.4-9.2c1.2-1.2,2.2-0.3,2.3-3.2c-0.5,1.7-1.8,0.5-3.5,3c-1.8,2.6-3.8,5.1-6,8.1c-3,3.7-3.7,5.6-4.1,7.4
	c-0.4,2.7-0.7,5.3-1.2,8c-0.7,2.7-1.7,5.5-7.6,10.4C190,123,190,141,183,154c-1,2-4-4-5.2-8.4c-1.3-4.6-1.9-10-4.7-10.1
	C157,120,138,102,114,112c-15,6-12,25-17,38c-2,7-13,1-17-5c-1.5-2.3-2.3-4.7-2.8-7.4C91,121,92,92,73,78c-8-5-26-8-28,5
	c13,0,26,10,26,24c-1,13-9,24-21,29c-12,4-26,3-37.3-4.3c-3.5-2.2-6.1-3.7-8.5-5c-4.2-1-8.4-3.1-12.6-6.4c-3.9-2.7-7-5.1-9.1-5.8
	c-6-1.2-9.2-2.5-9.2-3.8c0-1,1.7-1.9,5-2.8c1.6-0.5,3.7-0.6,6.6,1.3c2.5,2.4,5.1,4.2,7.7,5.6c2.6,1.4,5.3,2.4,8,2.9
	C12,132,33,140,50,132c8-4,15-13,14-23c-1-5-4-11-8-8c-8,5-17,10-23,2c-4-6-5-14-2-21c10-20,36-19,49-6c10,9,12,23,11.3,36.7
	c-0.1,7.8,3,5.7,6.2,2.5c6.4-6.3,12.4-14.5,22.4-15.2c0,1,0,3,0,3c16,3,31,6,42.2,17.1c4.1,3.6,6.4,3.6,8.8,2.9
	c9.2-2.5,22.5-6.4,25-16.9c0.5-2.1,0.5-4.5,0-7.1c10-10,20-21,23-36c4-21-12-35-30-40c13-7,26,1,34,11c3,4,5,8.3,6.2,12.9
	c0.6,2.3,0.9,4.7,0.8,7.6C227,66,227,78,229,89c-2,0-3-1-3-3c5,15,17,26,31,31c27.1,8.8,44.3-15.4,45.1-39.7
	c0.4-3.4,1.3-6.4,4.8-8.4C309.7,69.9,309.1,72.1,308.7,74.8z"/>
<path id="XMLID_5_" class="st1" d="M337.3,151c0,2.4-20,4.6-51.8,6.1c-2.3-1-4.6-1.5-7.1-2.9c-2.3-1.7-4.5-3.1-6.8-4.1
	C263,131,241,118,221,127c-7,3-12,8-14,15c-4,14,9,21,19,28c10,6,3,19-5,24c-12,8-28,3-37.6-6.7c-2.5-2.2-4.3-3.9-5.8-5.7
	c-1.5-1.8-2.8-3.8-3.9-5.9c-2.3-3.6-4.7-4.9-7.1-6.4C160,161,165,150,160,141s-17-23-25-13c-4,6,8,13,6,22c0,2-1,3-3,3c-1,0-1-1-2-2
	c-1,13-12,23-25,25c-13,1-26-4-35.3-13.5c-2.7-3.2-4.7-5.5-6.6-6.8c-1.5-0.4-3.2-0.9-5.3-1.5C43,147,21,157,8,174c2-6,6-11,11-14.6
	c8.8-6.9,7-7.6,7-8.3c0-0.6,1.4-1.3,4.9-1.9c3.5-0.1,6.8-0.9,10-1.6C47,147,54,146,60.5,145.9c2.7-0.2,5.5-0.1,8.5,0.1
	c5,10,13,18,23,22c14,6,33,0,34-16c0-8-11-12-12-20c0-8,7-14,15-16c19-3,32,12,37.7,28.4c1.8,6.5,3.7,8,5.6,10.4
	C177,165,181,176,191,182c7,5,24,1,20-6c-8-17-14-39,5-50c18-11,39-3,51.8,11.1c1.8,1.7,3.2,2.8,4.4,3.5c2.3,1.1,4.6,2.4,6.8,4.1
	c2.2,0.1,4.4,0.2,6.5,0.3C317.3,146.4,337.3,148.6,337.3,151z"/>
<path id="XMLID_6_" class="st1" d="M314.3,195.1c0,2.6-3.9,5.1-11,7.4c-2.4,0.8-5.1,1.5-8.2,2.2C277,204,258,203,244,215
	c0-3,3-7,2-8c-6-3-9,9-16.8,6.7c-2.4-0.6-4.9-1.2-7.4-2c-17.5-5.3-34.4-16.2-52.7-5.7c-21,11-26,38-14,57c-20-17-12-49,8.4-62
	c4.7-3.1,5.3-4.3,3.7-4.8c-3-0.8-6.1-1.3-9.1-1.3c-1.5,2-2.8,4.2-4,6.5c-0.6,1.1-1.4,2.5-2.8,4.3C144,214,141,223,136,232
	c0-3,0-5-3.4-6c-1.9,0.2-4,0.5-6.1,1c-2.7,0.5-5.4,1.2-8.2,1.7c-2.9,0.5-6.5,0.6-10,0.4c-5.2,1-10.2-2-12.5-6.8
	c-0.7-1.5-1.6-3.3-3.8-5c2.3-9.4,1.6-19.3-1.6-28.1c-1-2.9-2.4-5.8-3.9-8.4C85,174,77,172,74.3,167.1c-2.5-1.8-5.2-3.3-8.1-4.5
	s-6-2.1-9.2-2.6c-17-2-34,6-41,22c-5,11.7-1.7,26.1,7.7,34.1c1.9,1.6,4,2.9,6.3,3.9c6,3,11,0,17.1-0.6c2.7-1.2,5-2.9,6.6-5.1
	s2.5-5,2.2-8.2c-6,6-15,9-23,4c-6-4-8-11-7-18c1-9,8-15,16-18c17-5,34,7,37,24c1,7.5,0.3,14.5-2.3,20.8c-0.8,2.1-1.9,4.1-3.1,6
	C53,229,36,239,19,253c-7,5-9-11-8.9-17.6c-0.1-4.1-2.1-6.3-3.9-8.7c-6.1-6.7-10.6-15.2-12.4-24.4c-2.1-0.9-3.9-1.7-5.4-2.5
	c-2.9-1.5-4.4-3.1-4.4-4.7c0-2.4,3.4-4.8,9.7-6.9c1-0.1,1.8,0.9,2.3,7.5c0,11.6,5.3,22.5,13.3,30.6c2,2,3.8,4.1,3.4,8.1
	C12,240,12,252,18,250c16-7,28-25,46.6-24.2c3.9-1.2,5.5-3.5,6.9-5.9c3.7-7.4,4.8-15.4,2.5-22.9c-3-7-10-18-19-15c8,5,13,12,13,21
	c-0.5,5-2.3,10-5.1,14.3c-1.4,2.1-3.4,4-8,5.2C44,224,36,233,25,231c-3,0-2-4-2.3-7.3c-2.3-1.9-4.6-4.2-6.7-6.7
	c-4.1-5-7-11.3-8-17.9c-2-22,15-41,36-44c7.5-1,14.8,0,21.4,2.6c2.2,0.9,4.4,1.9,6.5,3.1C81,171,92,180,105,184c-6,3-5,10,0,10
	c28-2,47-26,47-55c13,6,7,23,9.6,34.5c2.7,2.2,5.6,3.9,8.7,5.3c1.5,2.4,3.3,4.8,5.4,7.2s4.5,4.6,7.1,6.5c1.6,2.3,2.9,3.9,4.5,4.9
	c1.7,1,3.7,1.3,6.8,1C213,206,238,199,245,178c5-15-8-28-23-27c-3,1-6-2-6-6c0-7,6-12,12-14c28-8,39,23,44.9,44.5
	c1.6,1.6,3.2,3.2,4.5,4.7c2.7,2.1,5.7,2.9,8.7,3.5C303.9,186.9,314.3,190.9,314.3,195.1z"/>
<path id="XMLID_7_" class="st1" d="M302.5,35.3C303,36,304,36,304,37c-2,4-7,5-10,4c-15-5-18-23-21.7-37.2c-2.2-2-4.5-3.8-7-5.3
	C262.8-3.1,260-4.3,257-5c-11.3-3.3-25.3,0-33.1,8.5c-1.9,2.1-3.7,4.4-10.8,2.8C204,6,193,2,185,8c16-2,32,4,43,15.8
	c6.5,8.7,7.7,6.4,9.2,4.4s3.3-3.8,6.8-3.3c4.5,1,7.5,3.8,9.1,7.3C235,49,230,74,241,96c-14-7-14-28-9.8-41.3c1.7-6.3,1-9.2,0.1-12
	C224,23.7,203.1,10.4,183,20c-9,5-16,16-11,26c4,7,12,7,18,10c3,1,1,5-1,8c1,0,4,0,4,1c-6,18-31,12-42,2c-9-10-12-23-10.2-35.7
	c0.9-5.2,1-8.3,0.7-10.9C127.4,4.6,100.9,2,85,17c-11.7,11.7-8.8,25.4-4.6,38.4c0.8,2.6,1.7,5.1,2.6,7.6c-7-5-16-6-23-10
	c1,0,3-1,4.1-1.2c1.6-1.5,0.9-4.2,0.6-6.8C62.8,31.8,70.2,19.2,81,10c10-8,24-12,37.3-9.2c6.4,1.3,10.1,1.9,12.9,1.9
	c7.6-0.7,15.9-1.3,24.8-1.8c2.9-0.1,6-0.3,9-0.4C171,4,176,1,182,0c-13,4-21,14-27,25c-6,14,1,39,20,37c-7-8-12-19-13-29
	c-4-24,27-36,47.5-29.9c3.2,0.2,4.5-0.3,5.5-1.1c7.4-9.1,18.4-13.8,30-13c9,0,18,1.7,25.4,6.6c2.4,1.8,4.6,4,5.3,9.3
	C275,18,284,27,294.6,31.8C298.3,33.2,300.9,34.1,302.5,35.3z"/>
<path id="XMLID_8_" class="st1" d="M300.8,285.8c0,2.2-1.6,4.4-4.5,6.4c-1.5,1-3.3,2-5.4,2.8c3.1-12,12.1-21,11.1-34
	c-1-16-13-33-31-30c-5,1-9,4-11,9c-1,5,1,9,5,12c-3-7,1-13,7-15c18-3,28,16,25,32c-3,13-11,22-21.1,28.7c-2.2,1.8-3.5,3.2-4.5,4.5
	c-1.7,2.5-3.9,4.8-6.4,6.9c-17,14-41,13-57.4,0c-2.7,0.1-5.4,0.2-8.2,0.3c-8.3,0.3-16.8,0.5-25.6,0.5c-11.1-0.2-21.6-0.5-32.6-0.8
	c-2.8-0.1-5.3-0.3-6-2.3C135,303,134,297,131,297c-14,2-28.8,8-42.8,9.8c-3.5,0.5-6.8,0.5-10,0.2C77,292,67,282,59,270
	c15-4,22,13,29.5,22.6c1.2-0.5,2.5-2.6,3.5-5.6c6-17,6-51,31-40c10,4,17,15,22.8,25c1.5,2.3,3,3.6,4.5,4.9
	c14.4,9.9,33.1,12.7,48.8,0.2c14-11,18-33,5-46c-8-8-21-10-31-2c-6,4-5,11-10,15c-7-12,5-24,16-28c11-3,23,0,32,7
	c1.5,1.3,2.9,2.7,4.1,4c1,2.1,1.9,4.1,2.2,7.9c0.7,14,8.7,25,12.7,38c1,3-3,3-7.1,0.5c-3.5-1.5-5.1,1.3-6.6,4.3
	c-3.1,6.1-6.9,11.9-10.8,17.1c1.7,2.2,3.6,4.2,5.7,6.1c2.1,1.9,4.4,3.6,6.9,5.1c11,5,24,6,35-1c1.8-1.3,3.4-2.6,5-4.1
	c1.8-1.5,6.7-3.1,12.2-5.5C280,291,288,283,291,272c1-6,1-17-7-19c5,27-22,49-46.8,38.1c-2.8-0.7-4.5-1.1-6.1-1.6
	c-3.1-1-6-2.8-8.3-5.1c-1.4-1.8-2.5-3.8,1.7-7C229,279,234,282,239,279c-10-14-22-28-20.4-47.4c0-4.2-0.8-6.1-1.8-7.7
	c-6.4-8.1-15.5-14.1-26.8-16c10.7-1.3,20,3.1,27.6,10.2c1.9,1.8,3.5,4,3,10.7C220,240,222,251,229,261c6,9,17,12,23,3
	c7-11-2-30,15-35c11-3,23,1,30,11c8,12,9,26,5.2,39.2C301.2,282.6,300.8,284.6,300.8,285.8z"/>
<path id="XMLID_9_" class="st1" d="M-22.8,233.1c0-1.2,9.9-2.3,26.1-3.1c1.7,1.2,3.3,2.3,5,3.5C10,241,7,248,11,255c2,6,10,7,13,1
	c10-18,29-29,50.2-26.9c1.7-2.2,3.3-4.6,4.6-7.1s2.4-5.2,3.2-8.1c5-15-2-30-14-40c-15-11-34-6-46,6c7-14,22-20,37-17
	c21.8,4.5,32.3,24.2,32.3,44.4c0,3.4-0.3,6.8-1,10.2c-1.8,2.6-3.1,5-3.7,7.1c-0.9,2.2-2.5,4.5-3.9,6.7c-0.7,0.6-2.9,3.3-1.7,3.6
	c2.7,0.8,5.3,1.3,7.9,1.4c12.9,0.6,24.8-6,38.3-4.3c2.6-0.5,5.1-1.1,6.6,2.3c-0.2,2.7-0.2,5.3,0,7.9c-3.7,7.8,5.3,13.8,8.4,19.6
	c2.2,3.4,4.4,6.7,6.5,8.6c6.1,5,13.7,8,22.4,7.7c17-2,35-19,27-37c6,7,4,17,0,25c-3,8-11,13-20,15c-10.5,1.5-19.2-1.2-26.1-6.4
	c-2.4-1.9-4.5-4-6.9-7.7c-8-9.9-10-24.9-18-29.9c-8.5-4.5-17.8-3.8-27.1-0.4c-3.1,1.1-6.3,2.5-9.4,4.2C76,239,62,236,48,242
	c6-10,19-11,29.1-10.2c1.9-1.7,3.9-3.3,5.9-4.8c2.9-3.6,4.7-7,5.7-10.2c3.7-15.7-1.5-34.5-15.6-42.8c11.7,13.3,15,32.9,7.7,48.3
	c-0.8,1.6-1.8,3.2-3,4.8c-1.8,1.2-3.8,2.4-7.1,2.7C52,228,33,240,25,258c-3,4-9,6-13,0c-5-7-3-15-6.1-21.7c-4.4-0.2-8.5-0.4-12-0.7
	C-16.6,234.9-22.8,234.1-22.8,233.1z"/>
<path id="XMLID_10_" class="st1" d="M320,243.7c0,1-1.9,1.9-5.4,2.7C307,233,294,221,278,222c-21,1-27,20-31,39c-1,4-11,5-16,1
	c-11-12-9-28-11.1-43c-2.5-2.2-5.1-4.2-7.9-5.9c-13.8-8.8-30.3-11.5-44,1c16.5-6,34.7-3,46.5,8.6c2,1.9,3.7,4.4,3.8,11.2
	C218,251,231,263,235,278c1,3-7-2-12-1.5c-2.5-0.3-3.5,1.8-4.4,4c-1.2,4.8,0.2,7.1,1.9,9.2c1.9,2,4.1,3.7,6.6,5.2c8,4,16,3,24,3
	c-9,13-27,9-38,1c-2.2-1.7-4.1-3.5-5.7-5.5c-0.6-1.1-0.4-2.7,0.8-4.9c2.1-1.9,4.1-4.1,5.8-6.3c1.7-2.3,3.3-4.7,4.6-7.2
	c5.4-3,15.4,4,12.4,0c-7-15-12-32-16-48c-2.2-2.7-4.7-5-7.5-6.9c-13.8-9.5-33.5-9-43.5,6.9c-6,10-5,22,4,29c3,2,8,3,12,1
	c9-6,0-11-3-16c3,0,6,0,8,2c5,6,4,15-3,18c-9,4-19,0-25-7c3-1,5,5,5,2c0-7-4-14-3-21c4-15,18-24,33-22c9,1.5,17.4,6.4,23.6,12.9
	c1,1.3,1.7,3.1,2,6C218,236,218,239,219,243c-2-5-1-10-1.4-14.8c-1.2-1.8-2.5-3.4-3.9-4.8c-2.9-2.9-6.1-5.4-9.6-7.4
	c-17-9-36-2-47,12c3-17,22-24,37-23c9,1.5,18,5.3,25,11.6c1.1,1.2,2,2.6,2.7,4.5C220,234,219,250,231,259c2,2,8,3,11,0
	c8-10,5-24,14-33c18-17,46-6,57.7,13.1c1.5,1.2,2.7,1.9,3.7,2.7C319.1,242.4,320,243,320,243.7z"/>
</svg>
