<?xml version="1.0" encoding="utf-8"?>
<!-- Generator: Adobe Illustrator 19.0.0, SVG Export Plug-In . SVG Version: 6.00 Build 0)  -->
<svg version="1.1" id="Слой_1" xmlns="http://www.w3.org/2000/svg" xmlns:xlink="http://www.w3.org/1999/xlink" x="0px" y="0px"
	 viewBox="-396 205.8 151.4 150.3" style="enable-background:new -396 205.8 151.4 150.3;" xml:space="preserve">
<style type="text/css">
	.st0{fill:#7BDDFF;}
	.st1{fill:#00CBE0;}
	.st2{opacity:0.49;fill:url(#XMLID_2_);enable-background:new    ;}
</style>
<g id="XMLID_54_">
	<path id="XMLID_65_" class="st0" d="M-320,356.9c41.9,0,76-34.1,76-76s-34.1-76-76-76s-76,34.1-76,76S-361.9,356.9-320,356.9z"/>
	<path id="XMLID_56_" class="st1" d="M-266.1,227.4c2.8,2.9,5.4,5.9,7.8,9.2c-15.4,3.2-39.3,7.2-64.8,9.5v-17
		C-303,230.4-282.9,229.9-266.1,227.4L-266.1,227.4z M-323.1,345.7v-21.4c21,1.5,43.1,2.3,64.1,2c-3.7,5-8,9.4-12.7,13.4
		C-286.9,341.6-304.6,343.8-323.1,345.7L-323.1,345.7z M-323.1,304.7v-24c27.6,1.5,56.2,2,79.1,0.6c0,5.3-0.6,10.4-1.6,15.4
		C-265,299.9-292.8,303.2-323.1,304.7L-323.1,304.7z M-323.1,273.6c29.6,1.6,58.4,0.3,78.5-2.3c-1.2-9.7-4.3-18.8-8.8-27
		c-24.9,8.7-48.4,12.9-69.7,14.3V273.6z M-323.1,246.2c-21.9,2-45,2.7-64.8,0.6c4.6-9.2,11.1-17.3,18.8-23.9
		c14.4,3.2,30.2,5.3,46,6.2V246.2L-323.1,246.2z M-323.1,258.5v15c-24.5-1.4-49.6-4.8-70.7-11.2c0.8-3,1.7-6,2.8-8.9
		C-373.1,257.6-349.9,260.3-323.1,258.5L-323.1,258.5z M-323.1,280.7c-27.2-1.5-53.5-4.2-72.6-7.3c-0.2,2.5-0.4,5-0.4,7.5
		c0,8.2,1.3,16,3.7,23.4c22.8,1.7,46.7,1.6,69.3,0.4V280.7L-323.1,280.7z M-323.1,324.3v21.4c-10.3,1.1-20.8,2.1-31.2,3
		c-13.8-7-25.1-18-32.5-31.5C-369.2,320.1-346.8,322.7-323.1,324.3z"/>
	
		<radialGradient id="XMLID_2_" cx="-275.4461" cy="653.1118" r="110.9004" gradientTransform="matrix(1 0 0 1 0 -400.445)" gradientUnits="userSpaceOnUse">
		<stop  offset="0" style="stop-color:#000000;stop-opacity:0"/>
		<stop  offset="1" style="stop-color:#000000;stop-opacity:0.9"/>
	</radialGradient>
	<path id="XMLID_55_" class="st2" d="M-320.1,359c42.8,0,77.7-34.9,77.7-77.7s-34.9-77.7-77.7-77.7s-77.7,34.9-77.7,77.7
		S-362.9,359-320.1,359z"/>
</g>
</svg>
