<?xml version="1.0" encoding="utf-8"?>
<!-- Generator: Adobe Illustrator 19.0.0, SVG Export Plug-In . SVG Version: 6.00 Build 0)  -->
<svg version="1.1" id="Слой_1" xmlns="http://www.w3.org/2000/svg" xmlns:xlink="http://www.w3.org/1999/xlink" x="0px" y="0px"
	 viewBox="-394.6 204.8 151.4 151.8" style="enable-background:new -394.6 204.8 151.4 151.8;" xml:space="preserve">
<style type="text/css">
	.st0{fill:#AA00AA;}
	.st1{fill:#FF83EC;}
	.st2{opacity:0.49;fill:url(#XMLID_2_);enable-background:new    ;}
</style>
<g id="XMLID_54_">
	<path id="XMLID_93_" class="st0" d="M-318.6,356.8c41.9,0,76-34.1,76-76s-34.1-76-76-76s-76,34.1-76,76S-360.5,356.8-318.6,356.8z"
		/>
	<path id="XMLID_57_" class="st1" d="M-254.8,239.4c7,10.8,11.4,23.5,12.1,37.2c-4.5-1.5-8.3-2.8-12.1-2.9v-8.2
		c3.6-0.2,4.3-5.5,0-5.5V239.4L-254.8,239.4z M-254.8,292c3.6,0.2,7.4,0.7,11.2,1.3c-1.7,10.5-5.6,20.3-11.2,28.9V292z
		 M-263.8,228.2c3.3,3.5,6.3,7.2,9,11.3V260c-0.2,0-0.4,0-0.6,0c-2.8,0.2-3.6,5.5,0.4,5.5c0.1,0,0.2,0,0.2,0v8.2
		c-2.9-0.1-5.8,0.6-9,2.3v-15.2c6.5-0.4,7.8-9.9,0-10.1L-263.8,228.2L-263.8,228.2z M-263.8,291.9c0.7-0.1,1.4-0.1,2.3-0.1
		c2.1,0,4.3,0.1,6.7,0.2v30.2c-0.6,1-1.3,1.9-2,2.9c-2.3-0.2-4.6-0.5-7-1V291.9z M-298.5,232.6c5.7,8.2,5.7,20.7,0,27.4V232.6
		L-298.5,232.6z M-298.5,284.9v8.6c4,0.1,3.3,4.9,0,5.1v18.7c8.9,0,14.8,1.7,28.4,5.3c2.1,0.6,4.2,1,6.2,1.4v-32.1
		c-14.9,1.6,5.4,20.1-19,20.1c-25.5,0,1.1-23.4,16-34c1-0.7,2.1-1.4,3-1.9v-15.2c-0.1,0-0.3,0-0.4,0c-7.2,0-5.8-9.6-0.7-10.1
		c0.4,0,0.8,0,1.2,0v-22.6c-2.9-3-6-5.8-9.3-8.2c-3.5,0.7-6.4,1.3-8.6,1.7c-12.8,2.1,19.1,23.4,6.4,23.4c-12.8,0-11.7,0-2.1,10.6
		C-269.6,264.4-277.6,278.9-298.5,284.9L-298.5,284.9z M-298.5,354.1v-23.6c7.7,2.2,13.3,10.2,13.2,18.6
		C-289.5,351.2-293.9,352.9-298.5,354.1z M-304.8,226.9c2.6,1.4,4.7,3.4,6.3,5.7V260c-1.6,1.9-3.7,3.4-6.3,4.1v-12.2
		c0.9-1.4,0.8-3.4,0-5.6V226.9L-304.8,226.9z M-304.8,286.4c2.2-0.4,4.3-0.9,6.3-1.5v8.6c-0.2,0-0.4,0-0.6,0
		c-2.6,0.2-3.3,5.1,0.4,5.1c0.1,0,0.1,0,0.2,0v18.7c-1.9,0-4,0.1-6.3,0.2v-9.4c4.8-0.3,5.8-7.3,0-7.5v-3.5c0.8-0.8,0.9-2.2,0-2.9
		V286.4L-304.8,286.4z M-298.5,330.5v23.6c-2.1,0.6-4.2,1-6.3,1.4v-25.8c1.4,0.1,2.7,0.2,3.9,0.3
		C-300,330.1-299.2,330.3-298.5,330.5z M-317.5,224.8c1.6-0.1,3.2-0.1,5-0.1c3,0.1,5.6,0.9,7.8,2.1v19.4
		c-1.8-4.8-7.2-10.5-12.8-12.5V224.8L-317.5,224.8z M-304.8,264.1c-2.2,0.6-4.8,0.7-7.8,0.1c-1.8-0.4-3.4-0.8-5-1.3v-9.7
		c1.8,0.4,3.8,0.8,5.9,0.9c3.7,0.3,5.9-0.7,6.9-2.2V264.1L-304.8,264.1z M-317.5,287.7c1.2-0.1,2.5-0.1,3.9-0.2
		c3.1-0.2,6.1-0.6,8.9-1.1v7.8c-0.4-0.4-1.1-0.6-2.1-0.5c-2.1,0.2-2.7,4.1,0.3,4.1c0.8,0,1.4-0.3,1.8-0.7v3.6c-0.3,0-0.6,0-0.9,0
		c-3.8,0.3-4.8,7.4,0.5,7.4c0.1,0,0.2,0,0.3,0v9.4c-2.9,0.2-6.1,0.4-9.9,0.8c-1,0.1-1.9,0.2-2.8,0.2v-16.1c5.3-3,7.5-5.9,0-7.3
		V287.7L-317.5,287.7z M-304.8,329.7v25.8c-4.1,0.8-8.4,1.2-12.8,1.3v-8.7c9.8-4.5,15.4-8.1,0-7.6v-10.8
		C-313,329.6-308.6,329.6-304.8,329.7z M-329.3,227.5c3.6-1.3,7.3-2.3,11.8-2.6v9c-0.7-0.2-1.3-0.4-2-0.5c-9.2-1.7-10.8,3.2-2.2,4.7
		c8.6,1.4,1.1,5.7-6.5,5c-0.5,0-0.9,0-1.2,0v-15.6H-329.3z M-317.5,262.8c-4.9-1.5-8.6-3.2-11.8-5.1v-10.6c2.1,2.2,6.2,4.7,11.8,6
		V262.8L-317.5,262.8z M-329.3,265.4c9.9,2.4,15.3,5.9,6.1,9.3c-2.3,0.9-4.3,1.7-6.1,2.6v-3.5c2.7-0.2,3.2-4.1,0-4.2V265.4
		L-329.3,265.4z M-329.3,287.5c2.9,0.3,6.8,0.4,11.8,0.2v7.5c-2.6-0.5-6.5-0.8-11.8-0.9V287.5L-329.3,287.5z M-317.5,318.6
		c-4.8,0.3-8.8,0.2-11.8-0.3v-10.2c0.3-0.1,0.5-0.2,0.8-0.4c3.8-1.6,7.9-3.4,11-5.2V318.6L-317.5,318.6z M-317.5,329.7v10.8
		c-1.1,0-2.3,0.1-3.5,0.2c-2.9,0.2-5.6,0.3-8.3,0.2v-11C-325.5,329.9-321.5,329.8-317.5,329.7L-317.5,329.7z M-317.5,348.1v8.7
		c-0.4,0-0.7,0-1.1,0c-3.6,0-7.2-0.3-10.7-0.8v-2.7C-325.4,351.6-321.2,349.8-317.5,348.1z M-333.5,229c1.4-0.5,2.7-1.1,4.1-1.5V243
		c-2.2,0.2-2.1,2.1,0,4.2v10.6c-1.5-0.9-2.8-1.7-4.1-2.6V229L-333.5,229z M-333.5,264.5c1.4,0.3,2.8,0.6,4.1,0.9v4.3
		c-0.2,0-0.3,0-0.5,0c-2.1,0.2-2.7,4.1,0.3,4.1c0.1,0,0.1,0,0.2,0v3.5c-1.6,0.8-3,1.6-4.1,2.4v-2.3c2-0.1,2.5-3.1,0-3.2V264.5
		L-333.5,264.5z M-333.5,286.8c1.1,0.3,2.4,0.6,4.1,0.8v6.8c-1.3,0-2.7,0-4.1,0V286.8L-333.5,286.8z M-329.3,318.3
		c-1.7-0.3-3-0.6-4.1-1.1v-6.8c1.1-0.7,2.4-1.5,4.1-2.3V318.3L-329.3,318.3z M-329.3,329.9v11c-1.4,0-2.8,0-4.1-0.1v-11
		C-332.1,329.9-330.7,329.9-329.3,329.9L-329.3,329.9z M-329.3,353.3v2.7c-1.4-0.2-2.8-0.4-4.1-0.7v-0.2
		C-332.1,354.6-330.8,354-329.3,353.3z M-336.7,230.3c1.1-0.4,2.2-0.8,3.3-1.3v26.2c-1.1-0.8-2.2-1.5-3.3-2.2V230.3L-336.7,230.3z
		 M-336.7,263.9c1.1,0.2,2.2,0.4,3.3,0.6v9.9c-0.1,0-0.2,0-0.4,0c-1.6,0.1-2,3.1,0.2,3.1h0.1v2.3c-1.8,1.3-3,2.5-3.3,3.6v-10
		c2.9,0,3.5-4.2,0-4.2L-336.7,263.9L-336.7,263.9z M-336.7,284.5c0.3,0.9,1.3,1.7,3.3,2.3v7.6c-1,0-2.1,0-3.3,0V284.5L-336.7,284.5z
		 M-333.5,317.2c-3.7-1.5-3.9-4.1,0-6.8V317.2L-333.5,317.2z M-333.5,329.8v11c-1.1-0.1-2.2-0.1-3.3-0.2v-11
		C-335.7,329.7-334.6,329.8-333.5,329.8L-333.5,329.8z M-333.5,355.2v0.2h-0.2L-333.5,355.2z M-377.3,232.5c21,4,31.6,1.1,40.6-2.3
		v22.7c-5.5-3.8-10.5-6.9-20.5-6.9c-20.2,0-20.2,16-1.1,16c6.4,0,14.4,0.7,21.6,1.9v5.4c-0.1,0-0.2,0-0.3,0
		c-2.1,0.2-2.7,4.1,0.3,4.1l0,0v10c-0.1,0.4-0.1,0.7,0,1.1v9.9c-4.3,0.1-9.4,0.3-15.2,0.6c-15.8,0.9-29.9,0.5-41.5-0.6
		c-0.7-4-1.1-8.1-1.2-12.2c22.6-1.3,41.6-3.5,20.3-7.4c-8.7-1.6-14.6-4.4-19.1-7.7C-391,254.1-385.4,242.3-377.3,232.5L-377.3,232.5
		z M-336.7,329.6v11c-23.6-1.9-35.4-11.8-35.4-18c0-1.9-4.6-1.9-10.7-1.1c-2-3.2-3.8-6.5-5.3-9.9c24.3-1.8,43.9-8.1,38.3,6.8
		C-352.8,326.3-346.3,328.9-336.7,329.6z"/>
	<path id="XMLID_56_" class="st1" d="M-318.6,204.8c8.9,0,17.5,1.6,25.5,4.4c-10,9.3-41.2,10.3-63.5,5.8
		C-345.4,208.5-332.4,204.8-318.6,204.8z"/>
	
		<radialGradient id="XMLID_2_" cx="-273.7497" cy="652.3614" r="110.9004" gradientTransform="matrix(1 0 0 1 0 -400.445)" gradientUnits="userSpaceOnUse">
		<stop  offset="0" style="stop-color:#000000;stop-opacity:0"/>
		<stop  offset="1" style="stop-color:#000000;stop-opacity:0.9"/>
	</radialGradient>
	<path id="XMLID_55_" class="st2" d="M-318.4,358.2c42.8,0,77.7-34.9,77.7-77.7s-34.9-77.7-77.7-77.7s-77.7,34.9-77.7,77.7
		C-396,323.3-361.1,358.2-318.4,358.2z"/>
</g>
</svg>
