<?xml version="1.0" encoding="utf-8"?>
<!-- Generator: Adobe Illustrator 19.0.0, SVG Export Plug-In . SVG Version: 6.00 Build 0)  -->
<svg version="1.1" id="Слой_1" xmlns="http://www.w3.org/2000/svg" xmlns:xlink="http://www.w3.org/1999/xlink" x="0px" y="0px"
	 viewBox="-393.8 205.7 146.6 146.6" style="enable-background:new -393.8 205.7 146.6 146.6;" xml:space="preserve">
<style type="text/css">
	.st0{fill:#7822F2;}
	.st1{fill:#DBB5FF;}
	.st2{opacity:0.49;fill:url(#XMLID_2_);enable-background:new    ;}
</style>
<g id="XMLID_54_">
	<circle id="XMLID_64_" class="st0" cx="-320.5" cy="279" r="73.3"/>
	<g id="XMLID_56_">
		<path id="XMLID_63_" class="st1" d="M-247.1,278.9c-13.6-4.2-32.4-14.5-51.5-28.9c-19.1-14.4-34.2-29.6-42-41.5
			c2.5-0.7,5.1-1.3,7.7-1.7c8.4,11.1,22.1,24.5,38.9,37.2c16.8,12.7,33.5,22.2,46.5,27.1C-247.3,273.7-247.1,276.3-247.1,278.9z"/>
		<path id="XMLID_62_" class="st1" d="M-252.5,306.7c-15.8-4.1-39.2-16.4-62.9-34.3c-23.7-17.9-42.1-36.9-50.4-51
			c2.2-1.7,4.4-3.3,6.7-4.7c8.8,13.8,26.5,31.8,49,48.7c22.5,16.9,44.6,28.9,60.3,33.6C-250.6,301.5-251.5,304.1-252.5,306.7z"/>
		<path id="XMLID_61_" class="st1" d="M-261,321.9c-13.2,0.5-39.9-12.1-67.2-32.6s-46.8-42.7-50-55.5c1.6-2,3.3-3.9,5-5.8
			c3.7,12.9,23,34.7,49.8,54.9c26.8,20.2,53.1,32.7,66.5,32.7C-258.1,317.7-259.5,319.8-261,321.9z"/>
		<path id="XMLID_60_" class="st1" d="M-280.5,340.5c-15.8-4.6-38.2-16.6-60.9-33.7c-22.7-17.1-40.5-35.3-49.3-49.2
			c1-3.3,2.2-6.5,3.7-9.7c8,14.2,26.7,33.6,50.8,51.8c24.2,18.2,48,30.7,63.8,34.5C-274.9,336.6-277.6,338.7-280.5,340.5z"/>
		<path id="XMLID_59_" class="st1" d="M-301.3,349.8c-13.9-5-32.1-15.3-50.5-29.2s-33.3-28.5-42-40.5c-0.1-4.1,0.2-8.3,0.9-12.4
			c7.6,12.9,24.3,30.2,46,46.5c21.6,16.3,42.9,27.6,57.4,31.3C-293.4,347.3-297.3,348.7-301.3,349.8z"/>
		<path id="XMLID_58_" class="st1" d="M-248.6,264.4c-12.2-5.3-26.9-14-41.8-25.2s-27.4-23-35.8-33.2c3.3-0.3,6.5-0.3,9.8-0.1
			c8,8.7,18.5,18.2,30.6,27.3c12.1,9.1,24.1,16.6,34.7,21.9C-250.1,258-249.3,261.2-248.6,264.4z"/>
		<path id="XMLID_57_" class="st1" d="M-339.4,349.9c-7.4-4.4-15.1-9.5-22.9-15.4c-7.8-5.9-14.9-11.9-21.1-17.7
			c-3.6-6-6.3-12.5-8.1-19.2c8.4,9.7,20,20.5,33.8,30.8c13.7,10.3,27.3,18.6,38.9,23.9C-325.6,352.5-332.6,351.7-339.4,349.9z"/>
	</g>
	
		<radialGradient id="XMLID_2_" cx="-276.8116" cy="651.1695" r="108.5451" gradientTransform="matrix(1 0 0 1 0 -400.445)" gradientUnits="userSpaceOnUse">
		<stop  offset="0" style="stop-color:#000000;stop-opacity:0"/>
		<stop  offset="1" style="stop-color:#000000;stop-opacity:0.9"/>
	</radialGradient>
	<path id="XMLID_55_" class="st2" d="M-320.5,354.8c41.9,0,76-34.1,76-76s-34.1-76-76-76s-76,34.1-76,76
		C-396.5,320.6-362.3,354.8-320.5,354.8z"/>
</g>
</svg>
